<svg xmlns="http://www.w3.org/2000/svg" width="248.953" height="47.313" viewBox="0 0 248.953 47.313"><defs><style>.a{fill:#181d26;}.b{fill:#6fa4d9;}</style></defs><g transform="translate(-90.31 -167.29)"><g transform="translate(90.31 195.166)"><path class="a" d="M102.978,230.114,90.31,237.623V222.612Zm-3,0-8.008-4.489v9.088Z" transform="translate(-90.31 -218.24)"/><path class="a" d="M124.634,226.934a4.025,4.025,0,0,1-1.273,3.094,4.669,4.669,0,0,1-3.31,1.183,4.948,4.948,0,0,1-2.958-.868v7.28h-1.657V226.933a4.078,4.078,0,0,1,1.286-3.116,5.172,5.172,0,0,1,6.639,0A4.1,4.1,0,0,1,124.634,226.934Zm-1.658,0a2.635,2.635,0,0,0-.811-2,2.943,2.943,0,0,0-2.118-.772,2.989,2.989,0,0,0-2.131.772,2.617,2.617,0,0,0-.823,2,2.574,2.574,0,0,0,.835,1.977,3,3,0,0,0,2.119.772,2.955,2.955,0,0,0,2.106-.772A2.591,2.591,0,0,0,122.976,226.931Z" transform="translate(-100.789 -218.24)"/><path class="a" d="M147.73,230.114l-12.668,7.509V222.612Zm-3,0-8.008-4.489v9.088Z" transform="translate(-108.975 -218.24)"/><path class="a" d="M163.941,231.483h-1.275v-3.261a4.04,4.04,0,0,1-2.433-.7,2.523,2.523,0,0,1-1.046-2.112,2.6,2.6,0,0,1,.862-2,3.044,3.044,0,0,1,2.147-.8h1.746v1.257H162.8q-2.252,0-2.251,1.545a1.378,1.378,0,0,0,1.162,1.455,12.736,12.736,0,0,0,2.227.113Zm8.4-2.935a2.773,2.773,0,0,1-.872,2.116,3.506,3.506,0,0,1-4.5,0,2.771,2.771,0,0,1-.872-2.115v-5.937h1.275v3.43a3.934,3.934,0,0,1,1.9-.406,3.086,3.086,0,0,1,2.21.819A2.757,2.757,0,0,1,172.338,228.548Zm-1.312,0a1.627,1.627,0,0,0-.5-1.243,1.851,1.851,0,0,0-1.321-.467,1.9,1.9,0,0,0-1.334.467,1.606,1.606,0,0,0-.509,1.243,1.633,1.633,0,0,0,.521,1.243,1.854,1.854,0,0,0,1.321.49,1.811,1.811,0,0,0,1.309-.49A1.653,1.653,0,0,0,171.027,228.548Z" transform="translate(-119.037 -218.24)"/><path class="a" d="M195.387,237.622h-3.009a7.917,7.917,0,0,1-5.715-2.1,7.741,7.741,0,0,1,0-10.8,7.92,7.92,0,0,1,5.715-2.1h3.009v1.549H192.38a6.252,6.252,0,0,0-4.509,1.671,6.131,6.131,0,0,0,0,8.571,6.252,6.252,0,0,0,4.509,1.671h3.007Z" transform="translate(-129.581 -218.24)"/><path class="a" d="M211.773,231.483H210.5v-3.261a4.04,4.04,0,0,1-2.433-.7,2.521,2.521,0,0,1-1.046-2.112,2.6,2.6,0,0,1,.861-2,3.045,3.045,0,0,1,2.147-.8h1.746v1.257h-1.137q-2.251,0-2.251,1.545a1.379,1.379,0,0,0,1.161,1.455,12.741,12.741,0,0,0,2.227.113Zm8.4-2.935a2.773,2.773,0,0,1-.871,2.116,3.507,3.507,0,0,1-4.5,0,2.771,2.771,0,0,1-.871-2.115v-5.937H215.2v3.43a3.935,3.935,0,0,1,1.9-.406,3.087,3.087,0,0,1,2.21.819A2.757,2.757,0,0,1,220.171,228.548Zm-1.312,0a1.625,1.625,0,0,0-.5-1.243,1.851,1.851,0,0,0-1.321-.467,1.9,1.9,0,0,0-1.334.467,1.6,1.6,0,0,0-.509,1.243,1.633,1.633,0,0,0,.521,1.243,1.854,1.854,0,0,0,1.322.49,1.812,1.812,0,0,0,1.309-.49A1.653,1.653,0,0,0,218.859,228.548Z" transform="translate(-138.988 -218.24)"/><path class="a" d="M243.211,230.117a7.161,7.161,0,0,1-2.194,5.39,7.853,7.853,0,0,1-5.686,2.115H232.3v-1.548h3.028a6.179,6.179,0,0,0,4.494-1.682,6.14,6.14,0,0,0,0-8.548,6.179,6.179,0,0,0-4.494-1.682H232.3v-1.549h3.031a7.854,7.854,0,0,1,5.686,2.115A7.161,7.161,0,0,1,243.211,230.117Z" transform="translate(-149.531 -218.24)"/><path class="a" d="M265.475,224h-8.34v13.553h-1.658v-15.1h10Z" transform="translate(-159.199 -218.175)"/><path class="a" d="M282.849,228.548a2.769,2.769,0,0,1-.874,2.116,3.524,3.524,0,0,1-4.518,0,2.767,2.767,0,0,1-.874-2.115v-5.937h1.275v3.43a3.963,3.963,0,0,1,1.9-.406,3.1,3.1,0,0,1,2.219.819A2.753,2.753,0,0,1,282.849,228.548Zm-1.312,0a1.624,1.624,0,0,0-.5-1.243,1.872,1.872,0,0,0-1.329-.467,1.912,1.912,0,0,0-1.34.467,1.6,1.6,0,0,0-.512,1.243,1.63,1.63,0,0,0,.524,1.243,1.868,1.868,0,0,0,1.328.49,1.827,1.827,0,0,0,1.316-.49A1.649,1.649,0,0,0,281.538,228.548Z" transform="translate(-168.002 -218.24)"/><path class="a" d="M318.769,230.117a7.162,7.162,0,0,1-2.195,5.39,7.85,7.85,0,0,1-5.686,2.115h-3.031v-1.548h3.029a6.179,6.179,0,0,0,4.493-1.682,6.14,6.14,0,0,0,0-8.548,6.179,6.179,0,0,0-4.493-1.682h-3.029v-1.549h3.031a7.85,7.85,0,0,1,5.686,2.115A7.162,7.162,0,0,1,318.769,230.117Z" transform="translate(-181.045 -218.24)"/><path class="a" d="M340.609,226.934a4.027,4.027,0,0,1-1.272,3.094,4.671,4.671,0,0,1-3.31,1.183,4.948,4.948,0,0,1-2.958-.868v7.28H331.41V226.933a4.076,4.076,0,0,1,1.286-3.116,5.172,5.172,0,0,1,6.639,0A4.1,4.1,0,0,1,340.609,226.934Zm-1.657,0a2.635,2.635,0,0,0-.811-2,2.945,2.945,0,0,0-2.118-.772,2.987,2.987,0,0,0-2.131.772,2.617,2.617,0,0,0-.823,2,2.572,2.572,0,0,0,.835,1.977,3,3,0,0,0,2.119.772,2.955,2.955,0,0,0,2.106-.772A2.591,2.591,0,0,0,338.952,226.931Z" transform="translate(-190.869 -218.24)"/><path class="a" d="M361.9,223.635a7.575,7.575,0,0,1-2.355,5.726,7.693,7.693,0,0,1-6.091,2.25h-.316v6.011h-1.657v-7.559h1.942a6.891,6.891,0,0,0,4.915-1.789,6.07,6.07,0,0,0,1.906-4.637v-1.025H361.9Z" transform="translate(-199.238 -218.24)"/><path class="a" d="M389.5,235.161h-7.038a4.017,4.017,0,0,1,.966,2.729,4.076,4.076,0,0,1-1.286,3.116,5.184,5.184,0,0,1-6.646,0,4.078,4.078,0,0,1-1.285-3.116A4,4,0,0,1,375.5,234.8a4.718,4.718,0,0,1,3.324-1.183H389.5Zm-7.747,2.739a2.576,2.576,0,0,0-.824-1.97,3.274,3.274,0,0,0-4.217,0,2.577,2.577,0,0,0-.824,1.97,2.622,2.622,0,0,0,.812,1.992,3.307,3.307,0,0,0,4.241,0A2.622,2.622,0,0,0,381.757,237.9Z" transform="translate(-208.723 -222.828)"/><path class="a" d="M416.183,237.622l-12.66-7.508,12.66-7.5Zm-1.658-2.889v-9.106l-8.019,4.5Z" transform="translate(-220.946 -218.24)"/><path class="a" d="M433.91,231.454h-1.275v-3.293a4.043,4.043,0,0,1-2.433-.7,2.521,2.521,0,0,1-1.046-2.112,2.6,2.6,0,0,1,.861-2,3.043,3.043,0,0,1,2.147-.8h1.746v1.257h-1.137q-2.251,0-2.251,1.552a1.382,1.382,0,0,0,1.161,1.461,12.579,12.579,0,0,0,2.227.114Zm11.167,1.866a4.1,4.1,0,0,1-1.285,3.123,5.18,5.18,0,0,1-6.647,0,4.078,4.078,0,0,1-1.285-3.116V222.55h1.676v7.357a4.893,4.893,0,0,1,2.934-.872,4.709,4.709,0,0,1,3.323,1.185A4.023,4.023,0,0,1,445.077,233.32Zm-1.676,0a2.6,2.6,0,0,0-.824-1.982,3.257,3.257,0,0,0-4.217,0,2.6,2.6,0,0,0-.824,1.982,2.649,2.649,0,0,0,.812,2.006,3.291,3.291,0,0,0,4.242,0A2.649,2.649,0,0,0,443.4,233.322Z" transform="translate(-231.637 -218.214)"/><path class="a" d="M473.549,237.651h-1.657v-9.02a4.275,4.275,0,0,0-1.356-3.257,5.334,5.334,0,0,0-6.924,0,4.275,4.275,0,0,0-1.356,3.257v9.02H460.6v-9.006a5.768,5.768,0,0,1,1.806-4.389,7.278,7.278,0,0,1,9.35-.011,5.776,5.776,0,0,1,1.795,4.4Z" transform="translate(-244.751 -218.214)"/><path class="a" d="M494.3,216.367a1.305,1.305,0,0,1-.4.98,1.426,1.426,0,0,1-1.035.388,1.314,1.314,0,0,1-1-.41,1.376,1.376,0,0,1-.389-.98,1.109,1.109,0,0,1,.414-.878,1.452,1.452,0,0,1,.973-.354,1.534,1.534,0,0,1,1.011.354A1.121,1.121,0,0,1,494.3,216.367Z" transform="translate(-257.632 -215.112)"/><path class="a" d="M495.813,227.931h-1.658v-1.066a2.573,2.573,0,0,0-.737-1.882,2.611,2.611,0,0,0-1.946-.748,2.45,2.45,0,0,0-2.394,1.341,2.808,2.808,0,0,0-.314,1.3v10.752h-1.658V226.865a4.263,4.263,0,0,1,.8-2.593,4.138,4.138,0,0,1,3.566-1.66,3.97,3.97,0,0,1,3.856,2.182,4.5,4.5,0,0,1,.485,2.069Z" transform="translate(-255.807 -218.24)"/><path class="a" d="M512.79,231.483h-1.748a4.684,4.684,0,0,1-3.373-1.251,4.482,4.482,0,0,1,.024-6.358,4.684,4.684,0,0,1,3.349-1.263h1.748v1.13l-1.745.068a3.723,3.723,0,0,0-2.472.908,3.039,3.039,0,0,0-.994,2.314,2.991,2.991,0,0,0,.969,2.337,3.509,3.509,0,0,0,2.5.93h1.745Z" transform="translate(-263.838 -218.24)"/></g><g transform="translate(150.174 167.29)"><path class="b" d="M203.006,167.29h2.2l9.642,21.476h-2.395l-2.491-5.7H197.829l-2.589,5.7h-2.233Zm1,2.184-5.339,11.77h10.516Z" transform="translate(-193.008 -167.29)"/><path class="b" d="M232.524,183.774c0-1.031-.161-3.215-.161-3.943H234.3c.032,1.031.065,2.184.129,2.457a5.347,5.347,0,0,1,4.757-2.821,4.816,4.816,0,0,1,1.133.152l-.227,1.79a2.545,2.545,0,0,0-.744-.122c-3.365,0-4.885,2.184-4.885,4.915v7.644h-1.942Z" transform="translate(-209.422 -172.369)"/><path class="b" d="M261.545,191.783a7.127,7.127,0,0,1-5.5,2.427c-4.595,0-7.862-3.094-7.862-7.372s3.268-7.371,7.862-7.371a7.534,7.534,0,0,1,5.565,2.427l-1.553,1.092a5.72,5.72,0,1,0-4.012,9.586,5.317,5.317,0,0,0,4.012-1.942Z" transform="translate(-216.02 -172.369)"/><path class="b" d="M280.11,178.843h-4.271v9.13a1.856,1.856,0,0,0,2.071,1.972,6.09,6.09,0,0,0,2.2-.486l.161,1.638a9.055,9.055,0,0,1-2.524.486c-2.782,0-3.85-1.608-3.85-3.61v-9.13h-3.236V177.2H273.9V173.17h1.941V177.2h4.271Z" transform="translate(-225.396 -169.742)"/><path class="b" d="M292.488,168.227a1.368,1.368,0,1,1-1.456,1.365A1.406,1.406,0,0,1,292.488,168.227Zm-.971,6.916h1.942v14.014h-1.942Z" transform="translate(-233.892 -167.681)"/><path class="b" d="M315.607,191.783a7.129,7.129,0,0,1-5.5,2.427c-4.594,0-7.862-3.094-7.862-7.372s3.268-7.371,7.862-7.371a7.534,7.534,0,0,1,5.565,2.427l-1.553,1.092a5.72,5.72,0,1,0-4.012,9.586,5.316,5.316,0,0,0,4.012-1.942Z" transform="translate(-238.569 -172.369)"/><path class="b" d="M330.885,167.29h2.75L347.58,186.1h.065V167.29h2.135v21.476h-2.75L333.085,169.96h-.064v18.807h-2.136Z" transform="translate(-250.514 -167.29)"/><path class="b" d="M382.672,191.206a7.509,7.509,0,0,1-6.471,3c-4.562,0-7.571-3.064-7.571-7.4a7.183,7.183,0,0,1,7.474-7.341c4.595,0,7.021,3.306,7.021,6.553v1.274H370.572a5.381,5.381,0,0,0,5.662,5.278,6.123,6.123,0,0,0,5.015-2.487Zm-1.488-5.551c0-2.487-2.3-4.55-5.177-4.55a5.383,5.383,0,0,0-5.436,4.55Z" transform="translate(-266.257 -172.369)"/><path class="b" d="M405.166,178.843h-4.271v9.13a1.856,1.856,0,0,0,2.07,1.972,6.091,6.091,0,0,0,2.2-.486l.161,1.638a9.064,9.064,0,0,1-2.524.486c-2.782,0-3.85-1.608-3.85-3.61v-9.13h-3.236V177.2h3.236V173.17h1.941V177.2h4.271Z" transform="translate(-277.555 -169.742)"/></g></g></svg>